<?xml version="1.0" standalone="no"?>
<!DOCTYPE svg PUBLIC "-//W3C//DTD SVG 20010904//EN"
 "http://www.w3.org/TR/2001/REC-SVG-20010904/DTD/svg10.dtd">
<svg version="1.0" xmlns="http://www.w3.org/2000/svg"
 width="335.000000pt" height="337.000000pt" viewBox="0 0 335.000000 337.000000"
 preserveAspectRatio="xMidYMid meet">

<g transform="translate(0.000000,337.000000) scale(0.100000,-0.100000)"
fill="#000000" stroke="none">
<path d="M1545 3134 c-371 -57 -623 -180 -866 -423 -306 -307 -448 -693 -417
-1138 33 -486 349 -953 793 -1172 406 -200 835 -200 1237 -1 410 204 688 570
779 1028 30 150 30 384 0 533 -57 287 -183 528 -381 733 -209 217 -458 355
-748 416 -94 20 -330 34 -397 24z m758 -940 c33 -17 64 -65 73 -112 14 -74 -2
-94 -413 -504 -428 -426 -426 -425 -515 -399 -35 11 -78 48 -242 209 -218 216
-243 252 -231 325 6 31 19 54 50 85 39 38 47 42 93 42 28 0 63 -5 78 -10 15
-6 85 -70 156 -141 70 -72 132 -129 138 -127 5 1 153 145 327 320 239 237 327
319 353 327 40 11 92 6 133 -15z"/>
</g>
</svg>
