<svg width="26" height="26" viewBox="0 0 26 26" fill="none" xmlns="http://www.w3.org/2000/svg">
<path d="M17.5392 2.16663H8.46084C4.5175 2.16663 2.16667 4.51746 2.16667 8.46079V17.5283C2.16667 21.4825 4.5175 23.8333 8.46084 23.8333H17.5283C21.4717 23.8333 23.8225 21.4825 23.8225 17.5391V8.46079C23.8333 4.51746 21.4825 2.16663 17.5392 2.16663ZM9.86917 18.3083C9.86917 18.6116 9.63084 18.85 9.32751 18.85H6.30501C6.00167 18.85 5.76334 18.6116 5.76334 18.3083V13.3033C5.76334 12.6208 6.31584 12.0683 6.99834 12.0683H9.32751C9.63084 12.0683 9.86917 12.3066 9.86917 12.61V18.3083ZM15.0475 18.3083C15.0475 18.6116 14.8092 18.85 14.5058 18.85H11.4833C11.18 18.85 10.9417 18.6116 10.9417 18.3083V8.38496C10.9417 7.70246 11.4942 7.14996 12.1767 7.14996H13.8233C14.5058 7.14996 15.0583 7.70246 15.0583 8.38496V18.3083H15.0475ZM20.2367 18.3083C20.2367 18.6116 19.9983 18.85 19.695 18.85H16.6725C16.3692 18.85 16.1308 18.6116 16.1308 18.3083V14.4625C16.1308 14.1591 16.3692 13.9208 16.6725 13.9208H19.0017C19.6842 13.9208 20.2367 14.4733 20.2367 15.1558V18.3083Z" fill="#F9F9F9"/>
</svg>
